<?xml version="1.0" encoding="UTF-8"?>
<svg version="1.1" xmlns="http://www.w3.org/2000/svg" width="512" height="512">
<path d="M0 0 C3.56793748 -0.0742982 5.65408805 -0.04492891 8.87207031 1.63110352 C10.87207031 4.06860352 10.87207031 4.06860352 11.37207031 7.63110352 C10.87207031 11.06860352 10.87207031 11.06860352 9.74707031 12.94360352 C5.62062619 15.41946999 0.55492191 15.16941337 -4.13867188 15.30761719 C-45.9805544 16.64346855 -89.15593351 30.37071432 -123.12792969 55.06860352 C-124.083125 55.75180664 -125.03832031 56.43500977 -126.02246094 57.13891602 C-144.00028785 70.28652731 -159.8155276 85.20985011 -173.12792969 103.06860352 C-173.84722656 104.01606445 -174.56652344 104.96352539 -175.30761719 105.93969727 C-203.46957371 143.68986855 -218.62846016 190.35726006 -218.50292969 237.38110352 C-218.50238586 238.15763275 -218.50184204 238.93416199 -218.50128174 239.73422241 C-218.34863068 287.58910776 -202.47159857 335.1409983 -173.12792969 373.06860352 C-172.50660156 373.88200195 -171.88527344 374.69540039 -171.24511719 375.53344727 C-160.3043059 389.55274593 -147.88619203 401.81184342 -134.12792969 413.06860352 C-133.79792969 362.90860352 -133.46792969 312.74860352 -133.12792969 261.06860352 C-111.67792969 261.06860352 -90.22792969 261.06860352 -68.12792969 261.06860352 C-68.12792969 323.43860352 -68.12792969 385.80860352 -68.12792969 450.06860352 C-64.82792969 450.72860352 -61.52792969 451.38860352 -58.12792969 452.06860352 C-57.46792969 452.39860352 -56.80792969 452.72860352 -56.12792969 453.06860352 C-56.12792969 371.22860352 -56.12792969 289.38860352 -56.12792969 205.06860352 C-38.96792969 198.13860352 -21.80792969 191.20860352 -4.12792969 184.06860352 C6.43774321 179.76939639 6.43774321 179.76939639 17.00292969 175.46899414 C17.8964917 175.10523682 18.79005371 174.74147949 19.71069336 174.36669922 C21.61497917 173.59027221 23.51856937 172.8121379 25.42163086 172.03271484 C28.32117518 170.84593006 31.22327331 169.6656054 34.12597656 168.48657227 C34.9754335 168.1368486 35.82489044 167.78712494 36.7000885 167.42680359 C37.85945168 166.95788445 37.85945168 166.95788445 39.04223633 166.47949219 C39.71368179 166.20529953 40.38512726 165.93110687 41.07691956 165.64860535 C42.87207031 165.06860352 42.87207031 165.06860352 45.87207031 165.06860352 C45.87207031 185.19860352 45.87207031 205.32860352 45.87207031 226.06860352 C42.32619777 225.35942901 39.52507797 224.66250935 36.21972656 223.40454102 C35.36056641 223.08743164 34.50140625 222.77032227 33.61621094 222.44360352 C31.82930369 221.777255 30.04540963 221.10276943 28.26464844 220.42016602 C23.44418355 218.65807847 19.97161954 217.44788001 14.87207031 219.06860352 C12.70859169 221.23208214 13.71699585 226.33341231 13.71385193 229.33815002 C13.70891395 230.32314057 13.70397597 231.30813111 13.69888836 232.32296985 C13.68343082 235.65037003 13.67513052 238.97775079 13.66674805 242.30517578 C13.657176 244.67967909 13.64716633 247.05418067 13.63674927 249.42868042 C13.61244319 255.22448822 13.59272743 261.02029876 13.57499652 266.81613011 C13.5541278 273.55764077 13.52765851 280.29912583 13.50082505 287.04061496 C13.45311787 299.06384779 13.40986219 311.08709238 13.36938477 323.11035156 C13.33004572 334.79265254 13.28862334 346.47494306 13.24438477 358.15722656 C13.24029836 359.23663138 13.24029836 359.23663138 13.2361294 360.33784235 C13.22245018 363.94773302 13.20872985 367.55762353 13.19498909 371.16751397 C13.08097521 401.13452207 12.97425057 431.10155258 12.87207031 461.06860352 C16.83207031 461.06860352 20.79207031 461.06860352 24.87207031 461.06860352 C24.87207031 385.49860352 24.87207031 309.92860352 24.87207031 232.06860352 C37.24812799 235.44389197 37.24812799 235.44389197 41.44995117 236.90283203 C42.40069519 237.23101929 43.35143921 237.55920654 44.33099365 237.89733887 C45.81892426 238.41717346 45.81892426 238.41717346 47.33691406 238.94750977 C48.401297 239.31622192 49.46567993 239.68493408 50.56231689 240.06481934 C53.9793976 241.24979231 57.39456407 242.44016667 60.80957031 243.63110352 C63.15432879 244.4462686 65.49913689 245.26129096 67.84399414 246.07617188 C80.26053751 250.39532912 92.67216159 254.72899438 105.05957031 259.13110352 C106.18419678 259.52950439 107.30882324 259.92790527 108.4675293 260.33837891 C109.46083252 260.69407959 110.45413574 261.04978027 111.47753906 261.41625977 C112.73280396 261.86497437 112.73280396 261.86497437 114.01342773 262.32275391 C115.87207031 263.06860352 115.87207031 263.06860352 116.87207031 264.06860352 C116.98127602 266.20721881 117.01899284 268.34948808 117.0302887 270.49085999 C117.03522667 271.1695841 117.04016465 271.84830822 117.04525226 272.54759973 C117.0606998 274.83853394 117.06900737 277.12943999 117.07739258 279.42041016 C117.08696541 281.0560074 117.09697513 282.69160213 117.10739136 284.32719421 C117.13451096 288.78152243 117.15548219 293.23586131 117.17539334 297.69022679 C117.19720954 302.34008957 117.22461951 306.98991919 117.25144958 311.63975525 C117.30143571 320.4511965 117.3463525 329.2626561 117.38947195 338.07413334 C117.43879384 348.10300813 117.49373063 358.13184967 117.54915154 368.16069233 C117.66306243 388.79663177 117.76988153 409.43260293 117.87207031 430.06860352 C120.23170151 428.50972043 122.58946967 426.94813414 124.94628906 425.38500977 C125.60463745 424.95047485 126.26298584 424.51593994 126.94128418 424.0682373 C136.40851526 417.7810174 145.25473092 410.85259783 153.61035156 403.14282227 C155.65531698 401.26738766 157.74826506 399.47827819 159.87207031 397.69360352 C175.55678332 383.91860606 187.5777631 366.06164476 197.87207031 348.06860352 C198.2687793 347.38362793 198.66548828 346.69865234 199.07421875 345.99291992 C215.67803789 317.06497518 225.94050011 282.48868462 226.87207031 249.06860352 C226.89785156 248.33174316 226.92363281 247.59488281 226.95019531 246.83569336 C228.16297469 208.42848643 215.07810596 166.43545283 190.87207031 136.06860352 C187.70207887 135.02243261 187.70207887 135.02243261 184.87207031 135.06860352 C183.115555 136.68555156 183.115555 136.68555156 181.87207031 139.06860352 C183.03495133 143.88625347 185.37821447 147.7993402 187.99707031 151.94360352 C199.38196019 170.51677167 215.87207031 198.93426604 215.87207031 221.06860352 C198.41113565 216.16728852 183.90433516 205.33811039 170.87207031 193.06860352 C170.18371094 192.45629883 169.49535156 191.84399414 168.78613281 191.21313477 C150.05680536 173.85334311 142.96662591 147.73681106 141.87207031 123.06860352 C141.45900244 100.75450866 146.310433 79.26269203 152.87207031 58.06860352 C158.45354816 59.66072685 163.26478694 62.2679768 168.30957031 65.06860352 C169.19265869 65.55772217 170.07574707 66.04684082 170.9855957 66.55078125 C188.53282323 76.39341878 204.31829837 88.20587398 218.87207031 102.06860352 C219.61328125 102.75696289 220.35449219 103.44532227 221.11816406 104.15454102 C236.24855391 118.6065703 246.6464224 138.11340714 247.33959961 159.15014648 C247.47185518 170.78267043 246.29325593 181.9027159 241.21972656 192.52954102 C239.64858635 196.65549183 239.72144201 199.37967483 240.12207031 203.75610352 C240.23035156 205.0387207 240.33863281 206.32133789 240.45019531 207.64282227 C240.67551096 210.02917022 240.90537917 212.4150652 241.13476562 214.80102539 C246.93256602 278.85090753 227.35411196 341.83302054 186.38037109 391.29467773 C156.77977176 426.1082023 118.42500054 451.27639994 74.87207031 465.06860352 C74.13166504 465.30562988 73.39125977 465.54265625 72.62841797 465.78686523 C11.85270294 484.90808166 -53.82736188 475.50336371 -109.75292969 446.75610352 C-122.85298191 439.88676812 -134.818229 431.59438511 -146.12792969 422.06860352 C-146.65596191 421.62935547 -147.18399414 421.19010742 -147.72802734 420.73754883 C-159.69174295 410.77396949 -170.44411905 400.31683067 -180.12792969 388.06860352 C-180.78277344 387.28098633 -181.43761719 386.49336914 -182.11230469 385.68188477 C-220.82060377 338.84484288 -237.54241087 276.12196839 -232.63183594 216.10766602 C-227.25062306 161.18764042 -203.96580587 111.91688834 -166.12792969 72.06860352 C-165.62245605 71.53444824 -165.11698242 71.00029297 -164.59619141 70.44995117 C-156.68640257 62.15046897 -148.32621998 54.9003684 -139.12792969 48.06860352 C-138.57556641 47.6501416 -138.02320313 47.23167969 -137.45410156 46.80053711 C-97.73004091 16.74954317 -49.50806295 1.59611814 0 0 Z M-31.07714844 245.11547852 C-32.71440558 248.15870741 -32.56062818 251.20285835 -32.50292969 254.56860352 C-32.51453125 255.24536133 -32.52613281 255.92211914 -32.53808594 256.61938477 C-32.52179715 259.37219028 -32.39411715 261.57383127 -31.07714844 264.02172852 C-28.02038816 265.66343544 -24.94039284 265.42077837 -21.56542969 265.31860352 C-20.53772461 265.31086914 -20.53772461 265.31086914 -19.48925781 265.30297852 C-15.68101483 265.28232473 -15.68101483 265.28232473 -12.12792969 264.06860352 C-11.00742818 260.707099 -10.99496317 258.10573626 -11.00292969 254.56860352 C-11.00035156 253.42391602 -10.99777344 252.27922852 -10.99511719 251.09985352 C-10.99108561 248.02180493 -10.99108561 248.02180493 -12.12792969 245.06860352 C-15.14651735 243.55930968 -18.25693922 243.84350279 -21.56542969 243.81860352 C-22.24669922 243.79797852 -22.92796875 243.77735352 -23.62988281 243.75610352 C-26.4021518 243.73438153 -28.60653235 243.78857448 -31.07714844 245.11547852 Z M-32.12792969 289.06860352 C-32.32645071 291.77783152 -32.40632446 294.36163531 -32.37792969 297.06860352 C-32.38566406 297.80594727 -32.39339844 298.54329102 -32.40136719 299.30297852 C-32.53801834 303.65282255 -32.53801834 303.65282255 -30.12792969 307.06860352 C-27.2516614 307.29367736 -24.50339945 307.39290758 -21.62792969 307.38110352 C-20.84289062 307.3972168 -20.05785156 307.41333008 -19.24902344 307.42993164 C-16.70607357 307.46815029 -16.70607357 307.46815029 -13.12792969 307.06860352 C-10.67511057 303.38937484 -10.85969049 301.44601 -10.87792969 297.06860352 C-10.87277344 295.83110352 -10.86761719 294.59360352 -10.86230469 293.31860352 C-10.87541608 289.92187207 -10.87541608 289.92187207 -13.12792969 287.06860352 C-16.0450777 286.79289745 -18.71661229 286.69634741 -21.62792969 286.75610352 C-22.41296875 286.75288086 -23.19800781 286.7496582 -24.00683594 286.74633789 C-28.5438626 286.61452426 -28.5438626 286.61452426 -32.12792969 289.06860352 Z M59.87207031 287.06860352 C58.29229323 290.22815768 58.68759947 293.60324169 58.68457031 297.06860352 C58.67232422 297.80594727 58.66007812 298.54329102 58.64746094 299.30297852 C58.64219636 301.2263041 58.75003585 303.14914615 58.87207031 305.06860352 C60.82968854 307.46676604 60.82968854 307.46676604 64.49707031 307.29907227 C65.95546852 307.2950803 67.41386775 307.28032191 68.87207031 307.25610352 C69.60941406 307.25545898 70.34675781 307.25481445 71.10644531 307.25415039 C75.11999321 307.29652056 75.11999321 307.29652056 78.87207031 306.06860352 C78.89891019 303.08937758 78.91883068 300.11039057 78.93457031 297.13110352 C78.94294922 296.2809668 78.95132812 295.43083008 78.95996094 294.55493164 C78.96318359 293.74604492 78.96640625 292.9371582 78.96972656 292.10375977 C78.97496338 291.35489502 78.9802002 290.60603027 78.9855957 289.83447266 C79.06548784 288.04192613 79.06548784 288.04192613 77.87207031 287.06860352 C76.52939618 286.98228477 75.18232709 286.96153878 73.83691406 286.97094727 C73.02802734 286.97416992 72.21914063 286.97739258 71.38574219 286.98071289 C70.53560547 286.9890918 69.68546875 286.9974707 68.80957031 287.00610352 C67.95556641 287.01061523 67.1015625 287.01512695 66.22167969 287.01977539 C64.10511368 287.03159978 61.98858346 287.04953583 59.87207031 287.06860352 Z M-110.12792969 299.06860352 C-110.35300353 301.94487181 -110.45223375 304.69313376 -110.44042969 307.56860352 C-110.45654297 308.35364258 -110.47265625 309.13868164 -110.48925781 309.94750977 C-110.52747646 312.49045963 -110.52747646 312.49045963 -110.12792969 316.06860352 C-106.46029652 318.51369229 -104.49361194 318.36746076 -100.12792969 318.38110352 C-98.27167969 318.40624023 -98.27167969 318.40624023 -96.37792969 318.43188477 C-93.25048806 318.28395474 -93.25048806 318.28395474 -91.21386719 317.05297852 C-89.46380297 313.85501944 -89.69645467 310.55461727 -89.75292969 307.00610352 C-89.74132812 306.27327148 -89.72972656 305.54043945 -89.71777344 304.78540039 C-89.69370321 302.40880921 -89.69370321 302.40880921 -90.12792969 299.06860352 C-93.76478506 296.64403327 -96.49025747 296.77091944 -100.69042969 296.81860352 C-101.37556641 296.81086914 -102.06070313 296.80313477 -102.76660156 296.79516602 C-106.90300244 296.6969505 -106.90300244 296.6969505 -110.12792969 299.06860352 Z M-32.12792969 331.06860352 C-32.32645071 333.77783152 -32.40632446 336.36163531 -32.37792969 339.06860352 C-32.38566406 339.80594727 -32.39339844 340.54329102 -32.40136719 341.30297852 C-32.53801834 345.65282255 -32.53801834 345.65282255 -30.12792969 349.06860352 C-27.2516614 349.29367736 -24.50339945 349.39290758 -21.62792969 349.38110352 C-20.84289062 349.3972168 -20.05785156 349.41333008 -19.24902344 349.42993164 C-16.70607357 349.46815029 -16.70607357 349.46815029 -13.12792969 349.06860352 C-10.67511057 345.38937484 -10.85969049 343.44601 -10.87792969 339.06860352 C-10.87277344 337.83110352 -10.86761719 336.59360352 -10.86230469 335.31860352 C-10.87541608 331.92187207 -10.87541608 331.92187207 -13.12792969 329.06860352 C-16.0450777 328.79289745 -18.71661229 328.69634741 -21.62792969 328.75610352 C-22.41296875 328.75288086 -23.19800781 328.7496582 -24.00683594 328.74633789 C-28.5438626 328.61452426 -28.5438626 328.61452426 -32.12792969 331.06860352 Z M58.87207031 331.06860352 C58.67354929 333.77783152 58.59367554 336.36163531 58.62207031 339.06860352 C58.61433594 339.80594727 58.60660156 340.54329102 58.59863281 341.30297852 C58.46198166 345.65282255 58.46198166 345.65282255 60.87207031 349.06860352 C63.76339208 349.24039403 66.54649096 349.30089822 69.43457031 349.25610352 C70.22798828 349.25545898 71.02140625 349.25481445 71.83886719 349.25415039 C75.6644683 349.58959809 75.6644683 349.58959809 78.87207031 348.06860352 C78.97044241 346.73816727 79.00285624 345.40267007 79.00488281 344.06860352 C79.00617188 343.26422852 79.00746094 342.45985352 79.00878906 341.63110352 C79.00298828 340.36266602 79.00298828 340.36266602 78.99707031 339.06860352 C79.0009375 338.22297852 79.00480469 337.37735352 79.00878906 336.50610352 C79.00685547 335.29954102 79.00685547 335.29954102 79.00488281 334.06860352 C79.00375488 333.32610352 79.00262695 332.58360352 79.00146484 331.81860352 C79.06149247 330.0403454 79.06149247 330.0403454 77.87207031 329.06860352 C75.04790649 328.9419726 72.25912238 328.88339803 69.43457031 328.88110352 C68.25024414 328.86273438 68.25024414 328.86273438 67.04199219 328.84399414 C62.48072122 328.62970793 62.48072122 328.62970793 58.87207031 331.06860352 Z M-110.12792969 341.06860352 C-110.54221315 342.9993683 -110.54221315 342.9993683 -110.42089844 345.20141602 C-110.41123047 346.00708008 -110.4015625 346.81274414 -110.39160156 347.64282227 C-110.36646484 348.48458008 -110.34132813 349.32633789 -110.31542969 350.19360352 C-110.30189453 351.0430957 -110.28835937 351.89258789 -110.27441406 352.76782227 C-110.23901188 354.86835189 -110.1852037 356.96855645 -110.12792969 359.06860352 C-106.96837552 360.6483806 -103.59329151 360.25307435 -100.12792969 360.25610352 C-99.02191406 360.27447266 -99.02191406 360.27447266 -97.89355469 360.29321289 C-95.97022911 360.29847747 -94.04738706 360.19063798 -92.12792969 360.06860352 C-89.72976717 358.11098529 -89.72976717 358.11098529 -89.89746094 354.44360352 C-89.9014529 352.98520531 -89.91621129 351.52680608 -89.94042969 350.06860352 C-89.94107422 349.33125977 -89.94171875 348.59391602 -89.94238281 347.83422852 C-89.90001265 343.82068061 -89.90001265 343.82068061 -91.12792969 340.06860352 C-94.4768359 338.95230145 -97.10332229 338.90094928 -100.62792969 338.88110352 C-101.77261719 338.86692383 -102.91730469 338.85274414 -104.09667969 338.83813477 C-107.30555353 338.83311295 -107.30555353 338.83311295 -110.12792969 341.06860352 Z M-32.12792969 373.06860352 C-32.32645071 375.77783152 -32.40632446 378.36163531 -32.37792969 381.06860352 C-32.38566406 381.80594727 -32.39339844 382.54329102 -32.40136719 383.30297852 C-32.53801834 387.65282255 -32.53801834 387.65282255 -30.12792969 391.06860352 C-27.2516614 391.29367736 -24.50339945 391.39290758 -21.62792969 391.38110352 C-20.84289062 391.3972168 -20.05785156 391.41333008 -19.24902344 391.42993164 C-16.70607357 391.46815029 -16.70607357 391.46815029 -13.12792969 391.06860352 C-10.67511057 387.38937484 -10.85969049 385.44601 -10.87792969 381.06860352 C-10.87277344 379.83110352 -10.86761719 378.59360352 -10.86230469 377.31860352 C-10.87541608 373.92187207 -10.87541608 373.92187207 -13.12792969 371.06860352 C-16.0450777 370.79289745 -18.71661229 370.69634741 -21.62792969 370.75610352 C-22.41296875 370.75288086 -23.19800781 370.7496582 -24.00683594 370.74633789 C-28.5438626 370.61452426 -28.5438626 370.61452426 -32.12792969 373.06860352 Z M58.87207031 373.06860352 C58.70000921 375.77492046 58.63968015 378.36574292 58.68457031 381.06860352 C58.68521484 381.80594727 58.68585938 382.54329102 58.68652344 383.30297852 C58.64415327 387.31652642 58.64415327 387.31652642 59.87207031 391.06860352 C62.85129625 391.09544339 65.83028326 391.11536389 68.80957031 391.13110352 C69.65970703 391.13948242 70.50984375 391.14786133 71.38574219 391.15649414 C72.19462891 391.1597168 73.00351562 391.16293945 73.83691406 391.16625977 C74.58577881 391.17149658 75.33464355 391.1767334 76.10620117 391.18212891 C77.8987477 391.26202104 77.8987477 391.26202104 78.87207031 390.06860352 C78.95838906 388.72592939 78.97913505 387.3788603 78.96972656 386.03344727 C78.96489258 384.82011719 78.96489258 384.82011719 78.95996094 383.58227539 C78.95158203 382.73213867 78.94320313 381.88200195 78.93457031 381.00610352 C78.93005859 380.15209961 78.92554688 379.2980957 78.92089844 378.41821289 C78.90907405 376.30164688 78.891138 374.18511667 78.87207031 372.06860352 C75.71251615 370.48882643 72.33743214 370.88413268 68.87207031 370.88110352 C68.13472656 370.86885742 67.39738281 370.85661133 66.63769531 370.84399414 C62.28848961 370.66752005 62.28848961 370.66752005 58.87207031 373.06860352 Z M-110.12792969 383.06860352 C-110.22630179 384.39903977 -110.25871561 385.73453696 -110.26074219 387.06860352 C-110.26203125 387.87297852 -110.26332031 388.67735352 -110.26464844 389.50610352 C-110.26078125 390.35172852 -110.25691406 391.19735352 -110.25292969 392.06860352 C-110.25679688 392.91422852 -110.26066406 393.75985352 -110.26464844 394.63110352 C-110.26335937 395.43547852 -110.26207031 396.23985352 -110.26074219 397.06860352 C-110.25961426 397.81110352 -110.25848633 398.55360352 -110.25732422 399.31860352 C-110.31735184 401.09686163 -110.31735184 401.09686163 -109.12792969 402.06860352 C-106.30376587 402.19523443 -103.51498175 402.253809 -100.69042969 402.25610352 C-99.50610352 402.27447266 -99.50610352 402.27447266 -98.29785156 402.29321289 C-96.23985534 402.29847631 -94.1823096 402.19066637 -92.12792969 402.06860352 C-89.5684397 399.50911352 -89.86724238 397.79653157 -89.85449219 394.30297852 C-89.86222656 393.56563477 -89.86996094 392.82829102 -89.87792969 392.06860352 C-89.87019531 391.33125977 -89.86246094 390.59391602 -89.85449219 389.83422852 C-89.71784104 385.48438449 -89.71784104 385.48438449 -92.12792969 382.06860352 C-95.01925146 381.896813 -97.80235034 381.83630882 -100.69042969 381.88110352 C-101.48384766 381.88174805 -102.27726563 381.88239258 -103.09472656 381.88305664 C-106.92032768 381.54760894 -106.92032768 381.54760894 -110.12792969 383.06860352 Z " fill="#FFFFFF" transform="translate(249.1279296875,17.931396484375)"/>
</svg>
